<?xml version="1.0" encoding="utf-8"?>
<!-- Generator: Adobe Illustrator 16.0.0, SVG Export Plug-In . SVG Version: 6.00 Build 0)  -->
<!DOCTYPE svg PUBLIC "-//W3C//DTD SVG 1.1//EN" "http://www.w3.org/Graphics/SVG/1.1/DTD/svg11.dtd">
<svg version="1.1"
	 id="svg1879" xmlns:dc="http://purl.org/dc/elements/1.1/" xmlns:cc="http://creativecommons.org/ns#" xmlns:rdf="http://www.w3.org/1999/02/22-rdf-syntax-ns#" xmlns:svg="http://www.w3.org/2000/svg" xmlns:sodipodi="http://sodipodi.sourceforge.net/DTD/sodipodi-0.dtd" xmlns:inkscape="http://www.inkscape.org/namespaces/inkscape" inkscape:version="0.48.2 r9819" sodipodi:docname="AJAX.svg"
	 xmlns="http://www.w3.org/2000/svg" xmlns:xlink="http://www.w3.org/1999/xlink" x="0px" y="0px" width="461.539px"
	 height="363.385px" viewBox="0 27.978 461.539 363.385" enable-background="new 0 27.978 461.539 363.385" xml:space="preserve">
<sodipodi:namedview  id="namedview6" objecttolerance="10" bordercolor="#666666" borderopacity="1" pagecolor="#ffffff" gridtolerance="10" guidetolerance="10" showgrid="false" fit-margin-top="0" fit-margin-left="0" inkscape:zoom="0.53456211" inkscape:cx="283.46457" inkscape:cy="196.07719" inkscape:pageshadow="2" inkscape:pageopacity="0" inkscape:window-width="640" inkscape:window-height="480" fit-margin-right="0" fit-margin-bottom="0" inkscape:window-x="0" inkscape:window-y="0" inkscape:current-layer="svg1879" inkscape:window-maximized="0">
	</sodipodi:namedview>
<g id="layer1" transform="translate(-17.716526,-17.725951)">
	<path id="path10" inkscape:connector-curvature="0" fill="#0086CB" d="M351.366,232.28c41.436-14.327,71.085-47.364,71.085-96.432
		c0-12.288-6.225-42.127-28.814-61.374c-14.888-12.686-36.417-27.699-105.917-29.376c-14.371-0.352-58.064,1.205-58.064,1.205v2.512
		c12.339,9.425,25.605,25.043,31.985,43.05c6.641-0.219,16.689-0.752,26.621-0.219c27.91,1.487,40.062,6.707,52.638,16.594
		c12.65,9.93,19.454,26.984,19.372,42.46c-0.08,21.113-10.103,42.933-40.583,55.354c-24.666,10.06-54.495,12.271-54.495,12.271
		l-0.021,7.692c0,0,17.86,8.554,35.711,32.158C316.26,278.491,405.515,409.88,405.515,409.88h73.74
		C479.255,409.88,360.09,243.877,351.366,232.28L351.366,232.28L351.366,232.28z M115.499,359.182H74.207V91.341
		c0.578,0,18.53-0.229,29.712-0.229c46.103,0,71.665,23.841,72.382,56.562c0.443,19.863-5.445,38.919-25.706,52.936
		c-16.539,11.464-39.581,14.88-39.581,14.88v8.626c0,0,31.941,4.757,48.16,12.342c30.203,14.099,39.173,36.009,39.381,64.335
		C198.89,345.582,155.648,359.182,115.499,359.182L115.499,359.182L115.499,359.182z M17.716,46.191v363.688h80.702
		c105.944,0,161.951-39.037,161.951-112.914c0-43.98-27.618-73.078-71.095-83.172c28.326-16.762,46.52-41.402,46.52-78.117
		c0-39.263-23.305-91.158-120.904-91.158C73.801,44.517,28.769,45.845,17.716,46.191L17.716,46.191L17.716,46.191z"/>
</g>
</svg>
